/* XPM */
static char * chipio_xpm[] = {
"24 20 4 1",
" 	c None",
".	c #00000000EEEE",
"X	c #F7F7F3F3DEDE",
"o	c #00008B8B0000",
"     ..............     ",
"    .XXXXXXXXXXXXXX.    ",
"   .XXXXXXXXXXXXXXXX.   ",
"  .XXooooooooooooooXX.  ",
"  .XXoXX        XXoXX.  ",
"  .XXoXX  X     XXoXX.  ",
"  .XXo      XXX   oXX.  ",
"  .XXo  XXX    X  oXX.  ",
"  .XXoX XXXXXX    oXX.  ",
"  .XXo  XXXXXXXX  oXX.  ",
"  .XXo  XXXXXXXX  oXX.  ",
"  .XXo  XXXXXXXX  oXX.  ",
"  .XXo  XXXXXXXX  oXX.  ",
"  .XXo  XXXXXXX   oXX.  ",
"  .XXoXX         XoXX.  ",
"  .XXoXX        XXoXX.  ",
"  .XXooooooooooooooXX.  ",
"   .XXXXXXXXXXXXXXXX.   ",
"    .XXXXXXXXXXXXXX.    ",
"     ..............     "};
