/* XPM */
static char * conn_xpm[] = {
"20 12 3 1",
" 	c None",
".	c #000000000000",
"X	c #0000FFFF0000",
"     .              ",
"    ..              ",
"   .X.....          ",
"  .XXXXXXX.   .     ",
" .XXXXXXXXX.  ..    ",
"  .XXXXXXXXX...X.   ",
"   .X...XXXXXXXXX.  ",
"    ..  .XXXXXXXXX. ",
"     .   .XXXXXXX.  ",
"          .....X.   ",
"              ..    ",
"              .     "};
