/* XPM */
static char * ground_xpm[] = {
"20 17 3 1",
" 	c None",
"X	c #000080800000",
"o	c #000000000000",
"                    ",
"       XXXXX        ",
"       XXXXX        ",
"       XXXXX        ",
"       XXXXX        ",
"         X          ",
"         X          ",
"         X          ",
"         X          ",
"         X          ",
"      ooooooo       ",
"                    ",
"       ooooo        ",
"                    ",
"        ooo         ",
"                    ",
"         o          "};
