/* XPM */
static char * power_xpm[] = {
"24 24 4 1",
" 	c None",
".	c #000000000000",
"X	c #EEEE00000000",
"o	c #0000EEEE0000",
"                        ",
"                        ",
"         .....          ",
"        .     .         ",
"      ....   ....       ",
"      . ....... .       ",
"      .    X    .       ",
"      .    X    .       ",
"      .  XXXXX  .       ",
"      .    X    .       ",
"      .o   X   o.       ",
"      .oo     oo.       ",
"      .ooooooooo.       ",
"      .ooooooooo.       ",
"      .ooooooooo.       ",
"      .ooooooooo.       ",
"      .ooooooooo.       ",
"      .ooXXXXXoo.       ",
"      .ooooooooo.       ",
"      .ooooooooo.       ",
"       .ooooooo.        ",
"        .......         ",
"                        ",
"                        "};
