/* XPM */
static char * power_xpm[] = {
"20 17 3 1",
" 	c None",
".	c #FFFF00000000",
"X	c #000000000000",
"         .          ",
"        ...         ",
"        ...         ",
"       .....        ",
"       .....        ",
"      .......       ",
"      .......       ",
"     .........      ",
"         X          ",
"         X          ",
"         X          ",
"         X          ",
"         X          ",
"        XXX         ",
"       XXXXX        ",
"       XXXXX        ",
"        XXX         "};
