/* XPM */
static char * search_xpm[] = {
"24 20 132 2",
"  	c None",
". 	c #F8F8F8F8F8F8",
"X 	c #E0E0D8D8F0F0",
"o 	c #B8B8B8B8C8C8",
"O 	c #98989898B0B0",
"+ 	c #A0A0A0A0B0B0",
"@ 	c #B8B8C0C0C8C8",
"# 	c #E0E0E8E8F0F0",
"$ 	c #E8E8E8E8F8F8",
"% 	c #B8B8C0C0D0D0",
"& 	c #808088889898",
"* 	c #787880809090",
"= 	c #A0A0A8A8B8B8",
"- 	c #787880808888",
"; 	c #808090909898",
": 	c #C0C0D0D0D0D0",
"> 	c #E8E8F0F0F0F0",
", 	c #E8E8F0F0F8F8",
"< 	c #D8D8E0E0F8F8",
"1 	c #C8C8D0D0E8E8",
"2 	c #C0C0D0D0E0E0",
"3 	c #C8C8D8D8E8E8",
"4 	c #A8A8C0C0C0C0",
"5 	c #707080808888",
"6 	c #C0C0C0C0C0C0",
"7 	c #D8D8E0E0E0E0",
"8 	c #90909898A0A0",
"9 	c #C0C0C8C8E0E0",
"0 	c #D0D0E0E0F8F8",
"q 	c #C8C8D8D8F0F0",
"w 	c #C0C0D8D8E8E8",
"e 	c #A8A8C8C8D0D0",
"r 	c #8888A0A0A0A0",
"t 	c #888890909090",
"y 	c #D8D8D8D8D8D8",
"u 	c #C0C0C8C8D0D0",
"i 	c #787888889090",
"p 	c #B8B8C8C8D8D8",
"a 	c #D0D0E0E0F0F0",
"s 	c #D0D0E8E8F8F8",
"d 	c #C8C8E0E0F8F8",
"f 	c #C8C8E8E8F8F8",
"g 	c #D8D8F0F0F8F8",
"h 	c #A0A0B0B0B8B8",
"j 	c #707078787878",
"k 	c #B8B8B8B8B8B8",
"l 	c #B8B8C0C0C0C0",
"z 	c #787888888888",
"x 	c #C0C0D8D8F0F0",
"c 	c #D0D0F0F0F8F8",
"v 	c #E0E0F8F8F8F8",
"b 	c #D8D8F8F8F8F8",
"n 	c #B8B8D8D8E8E8",
"m 	c #B0B0C0C0D0D0",
"M 	c #787880808080",
"N 	c #A8A8A8A8A8A8",
"B 	c #E8E8E8E8E8E8",
"V 	c #808088888888",
"C 	c #C0C0D0D0D8D8",
"Z 	c #9898B0B0B8B8",
"A 	c #585860606868",
"S 	c #B0B0B0B0B0B0",
"D 	c #F8F8F8F8F0F0",
"F 	c #D0D0D0D0C8C8",
"G 	c #B0B0B8B8C0C0",
"H 	c #B8B8D0D0D8D8",
"J 	c #C0C0E0E0E8E8",
"K 	c #C8C8E0E0F0F0",
"L 	c #88889898A0A0",
"P 	c #606060606868",
"I 	c #F0F0E0E0D8D8",
"U 	c #D8D8C8C8C0C0",
"Y 	c #A8A8A0A09898",
"T 	c #909090908888",
"R 	c #9898A0A0A0A0",
"E 	c #B0B0C0C0C8C8",
"W 	c #B0B0D0D0D8D8",
"Q 	c #C8C8E8E8F0F0",
"! 	c #B8B8D0D0E0E0",
"~ 	c #8888A0A0B0B0",
"^ 	c #585860607070",
"/ 	c #686868687070",
"( 	c #F8F8F0F0E8E8",
") 	c #E8E8D0D0C8C8",
"_ 	c #A0A088888080",
"` 	c #B8B8B0B0A8A8",
"' 	c #707070707070",
"] 	c #888890909898",
"[ 	c #80809898A0A0",
"{ 	c #9090A8A8B8B8",
"} 	c #686880808888",
"| 	c #E0E0E0E0E8E8",
" .	c #C0C0B0B0A8A8",
"..	c #989880807070",
"X.	c #F8F8D8D8D0D0",
"o.	c #C0C0A8A89898",
"O.	c #606058585858",
"+.	c #686878787878",
"@.	c #484860606868",
"#.	c #505060606868",
"$.	c #D0D0D0D0D8D8",
"%.	c #C0C0B8B8B0B0",
"&.	c #909078787070",
"*.	c #D8D8B8B8A8A8",
"=.	c #B0B088888080",
"-.	c #C0C0A0A09090",
";.	c #606048484040",
":.	c #686860605858",
">.	c #C8C8C8C8C8C8",
",.	c #E8E8F8F8F8F8",
"<.	c #E0E0F0F0F0F0",
"1.	c #D8D8E8E8E8E8",
"2.	c #E0E0E8E8E8E8",
"3.	c #686858584848",
"4.	c #D0D0B8B8A8A8",
"5.	c #B0B090908080",
"6.	c #A8A880807070",
"7.	c #707048483838",
"8.	c #707058585050",
"9.	c #B8B8A8A8A0A0",
"0.	c #606058584848",
"q.	c #989888887878",
"w.	c #888868686060",
"e.	c #686848484040",
"r.	c #606040403838",
"t.	c #B0B0A0A09898",
"y.	c #000000000000",
"u.	c #080808080808",
"i.	c #C0C0B8B8B8B8",
"p.	c #303028282828",
"a.	c #585850504848",
"s.	c #B8B8A8A8A8A8",
"                                                ",
"                                                ",
"                . X o O + @ # .                 ",
"              $ % & * = = - ; : >               ",
"            , @ * % < 1 2 3 4 5 6               ",
"            7 8 = 9 0 q w w e r t y             ",
"            u i p a s d f g w h j k             ",
"            l z a w x c v b n m M N             ",
"            B V C 3 s b c b g Z A S             ",
"          D F V G H J f g v K L P y             ",
"        I U Y T R E W Q g ! ~ ^ / B             ",
"      ( ) _ U ` ' ] [ { Z } A A |               ",
"    D  ...X.o. .O.V +.@.#.A 8 $..               ",
"    %.&.*.=.-.;.:.>.,.<.1.2.                    ",
"    3.4.5.6.7.8.9.                              ",
"    0.q.w.e.r.t.(                 y.y.u.y.y.    ",
"    i.O.p.a.s.(                     y.y.y.      ",
"      >.S >.                          u.        ",
"                                                ",
"                                                "};
